<?xml version="1.0" encoding="UTF-8"?> <svg xmlns="http://www.w3.org/2000/svg" width="152" height="56"><g fill="#0853A6" fill-rule="evenodd"><path d="M70.969 12.545h-.111l-4.426 13.569h8.908L70.97 12.545zm5.091 15.52H65.823l-2.158 6.42c-1.052 3.127-1.605 5.529 1.716 5.584v.95h-8.19v-.95c2.988-.447 3.707-2.067 4.702-5.024l8.744-26.35h3.265l9.186 27.523c.94 2.957 1.714 3.851 4.536 3.851v.95H76.448v-.95c2.158 0 3.208-.95 2.49-3.128l-2.878-8.875zM96.748 37.278c0 2.177.664 2.791 3.264 2.791v.95H89.665v-.95c2.988 0 3.32-.78 3.32-3.796V25.5c0-2.904-.718-3.24-4.038-3.24v-.948l6.86-.613h.94v4.299c3.652-3.184 5.368-4.3 6.697-4.3 1.106 0 2.6.67 3.596 1.563l-1.494 3.518c-1.604-.894-3.32-1.73-4.649-1.73-1.271 0-2.379.67-4.15 2.398v10.832M125.242 27.676h-.942c-.83-3.574-3.32-5.863-6.586-5.863-3.873 0-6.584 3.351-6.584 8.206 0 5.416 3.377 9.939 7.361 9.939 2.38 0 5.256-1.286 7.302-4.13v1.45c-2.102 2.902-5.089 4.353-8.631 4.353-5.81 0-9.849-4.075-9.849-9.991 0-6.086 4.537-10.942 10.126-10.942 2.933 0 4.538 1.115 5.533 1.115.497 0 .996-.388 1.328-1.115h.942v6.978M147.701 36.273c0 3.016.553 3.796 3.155 3.796v.95h-10.181v-.95c2.654 0 3.263-.614 3.263-3.18v-9.771c0-2.624-1.549-4.3-3.927-4.3-2.214 0-3.818 1.06-5.7 3.742v10.828c0 2.067.829 2.681 3.265 2.681v.95h-10.514v-.95c2.934-.055 3.486-.614 3.486-3.796V10.536c0-2.568-.72-2.958-3.486-2.958V6.63l6.307-.673h.941v18.704c2.49-2.905 4.317-3.963 6.862-3.963 3.265 0 6.53 2.175 6.53 6.867v8.708"></path><g><path d="M22.54 34.013L0 40.753 8.6 29.01l-.137 5.437 14.076-.435M28.597 33.672l-9.113 22.314-3.43-14.286 4.01 3.537 8.533-11.565M31.045 29.036L42.012 50.44 29.13 44.138l5.185-.966-3.27-14.136M29.29 22.94l23.1 4.203-12.73 6.639 2.445-4.827L29.29 22.94M25.093 21.422L43.051 5.823l-3.25 14.332-2.01-5.025-12.698 6.292M20.306 24.196L19.293 0l9.02 11.396-5.089-1.418-2.918 14.218M19.76 29.85L.635 15.822l14.26-.347-4.213 3.266 9.078 11.11"></path></g></g></svg> 